<svg width="167" height="33" viewBox="0 0 167 33" fill="none" xmlns="http://www.w3.org/2000/svg">
<path d="M12 0.5H122.5V32.5H12C5.64873 32.5 0.5 27.3513 0.5 21V12C0.5 5.64873 5.64873 0.5 12 0.5Z" stroke="url(#paint0_linear_82_46)"/>
<path d="M127 0.5H155C161.351 0.5 166.5 5.64873 166.5 12V21C166.5 27.3513 161.351 32.5 155 32.5H127V0.5Z" stroke="url(#paint1_linear_82_46)"/>
<path d="M145.516 10.6859L145.52 10.6412L145.362 10.6069C145.367 10.5848 145.372 10.5662 145.375 10.5511L145.376 10.5499L143.774 10.9445C144.324 10.6508 144.914 10.6271 145.516 10.6859ZM145.516 10.6859L145.52 10.6412M145.516 10.6859C145.595 10.6935 145.674 10.6996 145.752 10.7056C145.785 10.7081 145.818 10.7106 145.851 10.7133M145.52 10.6412L145.876 10.407C145.876 10.4695 145.876 10.532 145.876 10.5946M145.52 10.6412L145.851 10.7133M145.52 10.6412L145.861 10.5946M145.851 10.7133C145.856 10.6896 145.861 10.671 145.865 10.6556C145.872 10.6287 145.876 10.6116 145.876 10.5946M145.851 10.7133L145.861 10.5946M145.876 10.5946L145.861 10.5946M145.876 10.5946L145.861 10.5946M142.633 17.8863L142.394 18.0261L142.386 18.3037C142.385 18.3332 142.384 18.3652 142.382 18.3988C142.379 18.4877 142.376 18.5878 142.376 18.6831C142.375 23.2797 142.375 27.8764 142.375 32.4735C142.294 32.4772 142.204 32.4805 142.107 32.4835C141.739 32.4946 141.278 32.5002 140.818 32.5C140.359 32.4998 139.905 32.4939 139.552 32.4824C139.47 32.4797 139.395 32.4768 139.327 32.4736C139.321 32.3312 139.316 32.1918 139.316 32.0474L139.316 32.0472C139.314 28.3402 139.314 24.6331 139.314 20.926C139.314 20.1792 139.314 19.4325 139.314 18.6857C139.314 18.5937 139.311 18.4961 139.308 18.4089C139.307 18.3733 139.306 18.3393 139.305 18.3082L139.299 18.0423L139.075 17.8992L139.073 17.8983C139.054 17.886 139.03 17.871 139.006 17.8562L138.886 17.7826H138.745L137.427 17.7828L136.501 17.783C136.5 17.024 136.5 16.2651 136.501 15.5056H138.799H139.271L139.298 15.0341C139.299 15.0102 139.301 14.9828 139.303 14.9534C139.308 14.8785 139.314 14.7909 139.315 14.7152L139.315 14.7137C139.315 14.5088 139.314 14.3085 139.313 14.1105C139.311 13.7305 139.309 13.3591 139.319 12.9812L139.319 12.981C139.341 12.0705 139.45 11.2075 139.759 10.3951L139.759 10.3951C140.265 9.06869 141.171 8.21321 142.489 7.77807C142.849 7.65946 143.231 7.59598 143.649 7.54618L143.649 7.54615C144.115 7.49046 144.582 7.49688 145.089 7.50625L145.089 7.50626C145.186 7.50794 145.276 7.51501 145.371 7.52453C145.373 8.40728 145.374 9.28989 145.375 10.1725C144.787 10.132 144.151 10.1768 143.539 10.5033C143.053 10.7623 142.75 11.1876 142.601 11.6695L142.601 11.6697C142.526 11.9119 142.48 12.1868 142.442 12.4165C142.427 12.503 142.414 12.5832 142.401 12.6528L142.394 12.6865L142.392 12.7209L142.389 12.777L142.386 12.8334L142.385 12.8468V12.8602V14.9426V15.1869L142.578 15.3371C142.594 15.3497 142.611 15.3627 142.63 15.378L142.766 15.487L142.941 15.4875L144.29 15.4917L145.475 15.4953C145.486 15.729 145.493 16.0316 145.497 16.3596C145.502 16.8342 145.501 17.3526 145.491 17.7824L144.432 17.782L142.949 17.7815L142.822 17.7815L142.71 17.8427C142.685 17.8562 142.659 17.871 142.643 17.8808C142.639 17.8829 142.636 17.8847 142.633 17.8863Z" stroke="url(#paint2_linear_82_46)"/>
<path d="M16.7672 24V9.45455H25.4888V11.017H18.5286V15.9318H24.8354V17.4943H18.5286V24H16.7672ZM31.4885 24.2557C30.7972 24.2557 30.1698 24.1255 29.6064 23.8651C29.0429 23.5999 28.5955 23.2188 28.264 22.7216C27.9326 22.2197 27.7669 21.6136 27.7669 20.9034C27.7669 20.2784 27.89 19.7718 28.1362 19.3835C28.3824 18.9905 28.7115 18.6828 29.1234 18.4602C29.5353 18.2377 29.9899 18.072 30.487 17.9631C30.9889 17.8494 31.4932 17.7595 31.9998 17.6932C32.6627 17.608 33.2001 17.544 33.612 17.5014C34.0287 17.4541 34.3317 17.3759 34.5211 17.267C34.7153 17.1581 34.8123 16.9687 34.8123 16.6989V16.642C34.8123 15.9413 34.6206 15.3968 34.237 15.0085C33.8583 14.6203 33.283 14.4261 32.5112 14.4261C31.711 14.4261 31.0836 14.6013 30.6291 14.9517C30.1745 15.3021 29.8549 15.6761 29.6703 16.0739L28.0794 15.5057C28.3635 14.8428 28.7422 14.3267 29.2157 13.9574C29.694 13.5833 30.2148 13.3229 30.7782 13.1761C31.3464 13.0246 31.9051 12.9489 32.4544 12.9489C32.8047 12.9489 33.2072 12.9915 33.6618 13.0767C34.121 13.1572 34.5637 13.3253 34.9899 13.581C35.4208 13.8366 35.7782 14.2225 36.0623 14.7386C36.3464 15.2547 36.4885 15.946 36.4885 16.8125V24H34.8123V22.5227H34.7271C34.6135 22.7595 34.4241 23.0128 34.1589 23.2827C33.8938 23.5526 33.541 23.7822 33.1007 23.9716C32.6603 24.161 32.1229 24.2557 31.4885 24.2557ZM31.7441 22.75C32.407 22.75 32.9657 22.6198 33.4203 22.3594C33.8796 22.099 34.2252 21.7628 34.4572 21.3509C34.694 20.9389 34.8123 20.5057 34.8123 20.0511V18.517C34.7413 18.6023 34.585 18.6804 34.3436 18.7514C34.1068 18.8177 33.8322 18.8769 33.5197 18.929C33.2119 18.9763 32.9113 19.0189 32.6177 19.0568C32.3289 19.09 32.0945 19.1184 31.9146 19.142C31.479 19.1989 31.0718 19.2912 30.693 19.419C30.319 19.5421 30.0159 19.7292 29.7839 19.9801C29.5566 20.2263 29.443 20.5625 29.443 20.9886C29.443 21.571 29.6584 22.0114 30.0893 22.3097C30.5249 22.6032 31.0765 22.75 31.7441 22.75ZM43.9796 24.2273C42.9569 24.2273 42.0762 23.9858 41.3375 23.5028C40.5989 23.0199 40.0307 22.3546 39.633 21.5071C39.2353 20.6596 39.0364 19.6913 39.0364 18.6023C39.0364 17.4943 39.24 16.5166 39.6472 15.669C40.0591 14.8168 40.632 14.1515 41.3659 13.6733C42.1046 13.1903 42.9663 12.9489 43.9512 12.9489C44.7182 12.9489 45.4095 13.0909 46.025 13.375C46.6406 13.6591 47.1448 14.0568 47.5378 14.5682C47.9308 15.0795 48.1747 15.6761 48.2694 16.358H46.5932C46.4654 15.8608 46.1813 15.4205 45.7409 15.0369C45.3053 14.6487 44.7182 14.4545 43.9796 14.4545C43.3262 14.4545 42.7533 14.625 42.2608 14.9659C41.7731 15.3021 41.392 15.7779 41.1174 16.3935C40.8475 17.0043 40.7125 17.7216 40.7125 18.5455C40.7125 19.3883 40.8451 20.1222 41.1103 20.7472C41.3801 21.3722 41.7589 21.8575 42.2466 22.2031C42.7391 22.5488 43.3167 22.7216 43.9796 22.7216C44.4152 22.7216 44.8105 22.6458 45.1657 22.4943C45.5208 22.3428 45.8214 22.125 46.0676 21.8409C46.3139 21.5568 46.4891 21.2159 46.5932 20.8182H48.2694C48.1747 21.4621 47.9403 22.0421 47.5662 22.5582C47.1969 23.0696 46.7069 23.4768 46.0961 23.7798C45.49 24.0781 44.7845 24.2273 43.9796 24.2273ZM55.2935 24.2273C54.2424 24.2273 53.3356 23.9953 52.5733 23.5312C51.8158 23.0625 51.231 22.4091 50.8191 21.571C50.4119 20.7282 50.2083 19.7481 50.2083 18.6307C50.2083 17.5133 50.4119 16.5284 50.8191 15.6761C51.231 14.8191 51.8039 14.1515 52.5378 13.6733C53.2765 13.1903 54.1382 12.9489 55.123 12.9489C55.6912 12.9489 56.2523 13.0436 56.8063 13.233C57.3603 13.4223 57.8645 13.7301 58.3191 14.1562C58.7736 14.5777 59.1358 15.1364 59.4057 15.8324C59.6756 16.5284 59.8105 17.3854 59.8105 18.4034V19.1136H51.4015V17.6648H58.106C58.106 17.0492 57.9829 16.5 57.7367 16.017C57.4952 15.5341 57.1496 15.1529 56.6998 14.8736C56.2547 14.5942 55.7291 14.4545 55.123 14.4545C54.4554 14.4545 53.8778 14.6203 53.3901 14.9517C52.9071 15.2784 52.5355 15.7045 52.275 16.2301C52.0146 16.7557 51.8844 17.3191 51.8844 17.9205V18.8864C51.8844 19.7102 52.0265 20.4086 52.3105 20.9815C52.5994 21.5497 52.9995 21.983 53.5108 22.2812C54.0222 22.5748 54.6164 22.7216 55.2935 22.7216C55.7338 22.7216 56.1316 22.66 56.4867 22.5369C56.8465 22.4091 57.1567 22.2197 57.4171 21.9688C57.6775 21.7131 57.8787 21.3958 58.0208 21.017L59.6401 21.4716C59.4696 22.0208 59.1832 22.5038 58.7807 22.9205C58.3783 23.3324 57.8811 23.6544 57.2892 23.8864C56.6974 24.1136 56.0321 24.2273 55.2935 24.2273ZM62.5875 24V9.45455H64.2637V14.8239H64.4057C64.5288 14.6345 64.6993 14.393 64.9171 14.0994C65.1396 13.8011 65.4569 13.536 65.8688 13.304C66.2855 13.0672 66.8489 12.9489 67.5591 12.9489C68.4777 12.9489 69.2873 13.1785 69.9881 13.6378C70.6889 14.0971 71.2357 14.7481 71.6287 15.5909C72.0217 16.4337 72.2182 17.428 72.2182 18.5739C72.2182 19.7292 72.0217 20.7306 71.6287 21.5781C71.2357 22.4209 70.6912 23.0743 69.9952 23.5384C69.2992 23.9976 68.4966 24.2273 67.5875 24.2273C66.8868 24.2273 66.3257 24.1113 65.9043 23.8793C65.4829 23.6425 65.1586 23.375 64.9313 23.0767C64.704 22.7737 64.5288 22.5227 64.4057 22.3239H64.2069V24H62.5875ZM64.2353 18.5455C64.2353 19.3693 64.356 20.0961 64.5975 20.7259C64.839 21.3509 65.1917 21.8409 65.6557 22.196C66.1197 22.5464 66.6879 22.7216 67.3603 22.7216C68.061 22.7216 68.6458 22.5369 69.1145 22.1676C69.588 21.7936 69.9431 21.2917 70.1799 20.6619C70.4213 20.0275 70.5421 19.322 70.5421 18.5455C70.5421 17.7784 70.4237 17.0871 70.187 16.4716C69.955 15.8513 69.6022 15.3613 69.1287 15.0014C68.66 14.6368 68.0705 14.4545 67.3603 14.4545C66.6784 14.4545 66.1055 14.6274 65.6415 14.973C65.1775 15.3139 64.8271 15.7921 64.5904 16.4077C64.3536 17.0185 64.2353 17.7311 64.2353 18.5455ZM79.214 24.2273C78.2291 24.2273 77.365 23.9929 76.6216 23.5241C75.883 23.0554 75.3053 22.3996 74.8887 21.5568C74.4767 20.714 74.2708 19.7292 74.2708 18.6023C74.2708 17.4659 74.4767 16.474 74.8887 15.6264C75.3053 14.7789 75.883 14.1207 76.6216 13.652C77.365 13.1832 78.2291 12.9489 79.214 12.9489C80.1988 12.9489 81.0605 13.1832 81.7992 13.652C82.5426 14.1207 83.1202 14.7789 83.5321 15.6264C83.9488 16.474 84.1571 17.4659 84.1571 18.6023C84.1571 19.7292 83.9488 20.714 83.5321 21.5568C83.1202 22.3996 82.5426 23.0554 81.7992 23.5241C81.0605 23.9929 80.1988 24.2273 79.214 24.2273ZM79.214 22.7216C79.9621 22.7216 80.5776 22.5298 81.0605 22.1463C81.5435 21.7628 81.901 21.2585 82.133 20.6335C82.365 20.0085 82.481 19.3314 82.481 18.6023C82.481 17.8731 82.365 17.1937 82.133 16.5639C81.901 15.9342 81.5435 15.4252 81.0605 15.0369C80.5776 14.6487 79.9621 14.4545 79.214 14.4545C78.4658 14.4545 77.8503 14.6487 77.3674 15.0369C76.8844 15.4252 76.5269 15.9342 76.2949 16.5639C76.0629 17.1937 75.9469 17.8731 75.9469 18.6023C75.9469 19.3314 76.0629 20.0085 76.2949 20.6335C76.5269 21.2585 76.8844 21.7628 77.3674 22.1463C77.8503 22.5298 78.4658 22.7216 79.214 22.7216ZM91.1475 24.2273C90.1627 24.2273 89.2986 23.9929 88.5552 23.5241C87.8166 23.0554 87.2389 22.3996 86.8223 21.5568C86.4103 20.714 86.2044 19.7292 86.2044 18.6023C86.2044 17.4659 86.4103 16.474 86.8223 15.6264C87.2389 14.7789 87.8166 14.1207 88.5552 13.652C89.2986 13.1832 90.1627 12.9489 91.1475 12.9489C92.1324 12.9489 92.9941 13.1832 93.7328 13.652C94.4761 14.1207 95.0538 14.7789 95.4657 15.6264C95.8824 16.474 96.0907 17.4659 96.0907 18.6023C96.0907 19.7292 95.8824 20.714 95.4657 21.5568C95.0538 22.3996 94.4761 23.0554 93.7328 23.5241C92.9941 23.9929 92.1324 24.2273 91.1475 24.2273ZM91.1475 22.7216C91.8957 22.7216 92.5112 22.5298 92.9941 22.1463C93.4771 21.7628 93.8346 21.2585 94.0666 20.6335C94.2986 20.0085 94.4146 19.3314 94.4146 18.6023C94.4146 17.8731 94.2986 17.1937 94.0666 16.5639C93.8346 15.9342 93.4771 15.4252 92.9941 15.0369C92.5112 14.6487 91.8957 14.4545 91.1475 14.4545C90.3994 14.4545 89.7839 14.6487 89.301 15.0369C88.818 15.4252 88.4605 15.9342 88.2285 16.5639C87.9965 17.1937 87.8805 17.8731 87.8805 18.6023C87.8805 19.3314 87.9965 20.0085 88.2285 20.6335C88.4605 21.2585 88.818 21.7628 89.301 22.1463C89.7839 22.5298 90.3994 22.7216 91.1475 22.7216ZM100.212 20.0227L100.183 17.9489H100.524L105.297 13.0909H107.371L102.286 18.233H102.144L100.212 20.0227ZM98.6493 24V9.45455H100.325V24H98.6493ZM105.581 24L101.32 18.6023L102.513 17.4375L107.712 24H105.581Z" fill="url(#paint3_linear_82_46)"/>
<defs>
<linearGradient id="paint0_linear_82_46" x1="102.5" y1="-4" x2="53.1719" y2="48.125" gradientUnits="userSpaceOnUse">
<stop stop-color="#CEAC68"/>
<stop offset="0.442708" stop-color="#F0D4A4"/>
<stop offset="1" stop-color="#CEAC68"/>
</linearGradient>
<linearGradient id="paint1_linear_82_46" x1="146.75" y1="0" x2="146.75" y2="33" gradientUnits="userSpaceOnUse">
<stop stop-color="#CEAC68"/>
<stop offset="0.473958" stop-color="#F0D4A4"/>
<stop offset="1" stop-color="#CCAC60"/>
</linearGradient>
<linearGradient id="paint2_linear_82_46" x1="147.5" y1="7" x2="136" y2="33" gradientUnits="userSpaceOnUse">
<stop stop-color="#CEAC68"/>
<stop offset="0.458333" stop-color="#F0D4A4"/>
<stop offset="1" stop-color="#CEAC68"/>
</linearGradient>
<linearGradient id="paint3_linear_82_46" x1="93.6071" y1="2.27273" x2="31.9978" y2="34.6524" gradientUnits="userSpaceOnUse">
<stop stop-color="#CEAC68"/>
<stop offset="0.5" stop-color="#F0D4A4"/>
<stop offset="1" stop-color="#CEAC68"/>
</linearGradient>
</defs>
</svg>
